# Blender 3.6.2
# www.blender.org
mtllib lowpolyball.mtl
o Sphere
v 0.234575 2.288864 -0.365006
v 0.422690 2.011384 -0.657718
v 0.527086 1.610416 -0.820162
v 0.527086 1.165374 -0.820162
v 0.422690 0.764405 -0.657718
v 0.234575 0.486926 -0.365006
v 0.394675 2.288864 -0.180242
v 0.711179 2.011384 -0.324785
v 0.886826 1.610416 -0.405000
v 0.886826 1.165374 -0.405000
v 0.711179 0.764405 -0.324785
v 0.394675 0.486926 -0.180242
v 0.429467 2.288864 0.061748
v 0.773873 2.011384 0.111266
v 0.965004 1.610416 0.138747
v 0.965004 1.165374 0.138747
v 0.773873 0.764405 0.111266
v 0.429467 0.486926 0.061748
v 0.327907 2.288864 0.284133
v 0.590869 2.011384 0.511990
v 0.736801 1.610416 0.638442
v 0.736801 1.165374 0.638442
v 0.590869 0.764405 0.511990
v 0.327907 0.486926 0.284133
v 0.122239 2.288864 0.416308
v 0.220267 2.011384 0.750162
v 0.274669 1.610416 0.935436
v 0.274669 1.165374 0.935436
v 0.220267 0.764405 0.750162
v 0.122239 0.486926 0.416308
v 0.000000 2.387895 0.000000
v -0.122239 2.288864 0.416308
v -0.220267 2.011384 0.750162
v -0.274669 1.610416 0.935436
v -0.274669 1.165374 0.935436
v -0.220267 0.764405 0.750162
v -0.122239 0.486926 0.416308
v 0.000000 0.387895 0.000000
v -0.327907 2.288864 0.284133
v -0.590868 2.011384 0.511991
v -0.736801 1.610416 0.638442
v -0.736801 1.165374 0.638442
v -0.590868 0.764405 0.511991
v -0.327907 0.486926 0.284133
v -0.429467 2.288864 0.061748
v -0.773873 2.011384 0.111266
v -0.965004 1.610416 0.138747
v -0.965004 1.165374 0.138747
v -0.773873 0.764405 0.111266
v -0.429467 0.486926 0.061748
v -0.394674 2.288864 -0.180242
v -0.711179 2.011384 -0.324784
v -0.886825 1.610416 -0.404999
v -0.886825 1.165374 -0.404999
v -0.711179 0.764405 -0.324784
v -0.394674 0.486926 -0.180242
v -0.234575 2.288864 -0.365006
v -0.422690 2.011384 -0.657718
v -0.527086 1.610416 -0.820161
v -0.527086 1.165374 -0.820161
v -0.422690 0.764405 -0.657718
v -0.234575 0.486926 -0.365006
v -0.000000 2.288864 -0.433884
v -0.000000 2.011384 -0.781831
v -0.000000 1.610416 -0.974927
v -0.000000 1.165374 -0.974927
v -0.000000 0.764405 -0.781831
v -0.000000 0.486926 -0.433884
vn 0.1801 -0.7691 -0.6133
vn 0.2817 -0.0000 -0.9595
vn 0.1801 0.7690 -0.6133
vn 0.0652 -0.9729 -0.2220
vn 0.2557 -0.4195 -0.8710
vn 0.2557 0.4195 -0.8710
vn 0.0652 0.9729 -0.2220
vn 0.6861 0.4195 -0.5945
vn 0.1749 0.9729 -0.1515
vn 0.4831 -0.7691 -0.4186
vn 0.7557 -0.0000 -0.6549
vn 0.4831 0.7691 -0.4186
vn 0.1749 -0.9729 -0.1515
vn 0.6861 -0.4195 -0.5945
vn 0.6327 -0.7691 -0.0910
vn 0.9898 -0.0000 -0.1423
vn 0.6327 0.7690 -0.0910
vn 0.2291 -0.9729 -0.0329
vn 0.8985 -0.4195 -0.1292
vn 0.8985 0.4195 -0.1292
vn 0.2291 0.9729 -0.0329
vn 0.5814 -0.7691 0.2655
vn 0.9096 -0.0000 0.4154
vn 0.5814 0.7691 0.2655
vn 0.2105 -0.9729 0.0961
vn 0.8257 -0.4195 0.3771
vn 0.8257 0.4195 0.3771
vn 0.2105 0.9729 0.0961
vn 0.3456 0.7690 0.5377
vn 0.1251 -0.9729 0.1947
vn 0.4908 -0.4195 0.7637
vn 0.4908 0.4195 0.7637
vn 0.1251 0.9729 0.1947
vn 0.3456 -0.7690 0.5377
vn 0.5406 -0.0000 0.8413
vn -0.0000 -0.9729 0.2314
vn -0.0000 -0.4195 0.9078
vn -0.0000 0.4195 0.9078
vn -0.0000 0.9729 0.2314
vn -0.0000 -0.7690 0.6392
vn -0.0000 -0.0000 1.0000
vn -0.0000 0.7690 0.6392
vn -0.4908 -0.4195 0.7637
vn -0.4908 0.4195 0.7637
vn -0.1251 0.9729 0.1947
vn -0.3456 -0.7690 0.5377
vn -0.5406 -0.0000 0.8413
vn -0.3456 0.7690 0.5377
vn -0.1251 -0.9729 0.1947
vn -0.2105 0.9729 0.0961
vn -0.5814 -0.7691 0.2655
vn -0.9096 -0.0000 0.4154
vn -0.5814 0.7691 0.2655
vn -0.2105 -0.9729 0.0961
vn -0.8257 -0.4195 0.3771
vn -0.8257 0.4195 0.3771
vn -0.6327 -0.7691 -0.0910
vn -0.9898 -0.0000 -0.1423
vn -0.6327 0.7690 -0.0910
vn -0.2291 -0.9729 -0.0329
vn -0.8985 -0.4195 -0.1292
vn -0.8985 0.4195 -0.1292
vn -0.2291 0.9729 -0.0329
vn -0.7557 -0.0000 -0.6549
vn -0.4831 0.7690 -0.4186
vn -0.1749 -0.9729 -0.1515
vn -0.6861 -0.4195 -0.5945
vn -0.6861 0.4195 -0.5945
vn -0.1749 0.9729 -0.1515
vn -0.4831 -0.7690 -0.4186
vn -0.0652 -0.9729 -0.2220
vn -0.2558 -0.4195 -0.8710
vn -0.2558 0.4195 -0.8710
vn -0.0652 0.9729 -0.2220
vn -0.1801 -0.7691 -0.6133
vn -0.2817 -0.0000 -0.9595
vn -0.1801 0.7691 -0.6133
vt 0.727273 0.294568
vt 0.727273 0.376741
vt 0.636364 0.376741
vt 0.636364 0.294568
vt 0.727273 0.458914
vt 0.727273 0.541086
vt 0.636364 0.541086
vt 0.636364 0.458914
vt 0.727273 0.623259
vt 0.727273 0.705432
vt 0.636364 0.705432
vt 0.636364 0.623259
vt 0.681818 0.000000
vt 0.681818 1.000000
vt 0.545455 0.623259
vt 0.545455 0.541086
vt 0.590909 1.000000
vt 0.545455 0.705432
vt 0.545455 0.376741
vt 0.545455 0.294568
vt 0.545455 0.458914
vt 0.590909 0.000000
vt 0.454545 0.376741
vt 0.454545 0.294568
vt 0.454545 0.541086
vt 0.454545 0.458914
vt 0.454545 0.705432
vt 0.454545 0.623259
vt 0.500000 0.000000
vt 0.500000 1.000000
vt 0.363636 0.376741
vt 0.363636 0.294568
vt 0.363636 0.541086
vt 0.363636 0.458914
vt 0.363636 0.705432
vt 0.363636 0.623259
vt 0.409091 0.000000
vt 0.409091 1.000000
vt 0.272727 0.705432
vt 0.272727 0.623259
vt 0.318182 0.000000
vt 0.272727 0.294568
vt 0.272727 0.458914
vt 0.272727 0.376741
vt 0.272727 0.541086
vt 0.318182 1.000000
vt 0.227273 0.000000
vt 0.181818 0.294568
vt 0.181818 0.458914
vt 0.181818 0.376741
vt 0.181818 0.623259
vt 0.181818 0.541086
vt 0.227273 1.000000
vt 0.181818 0.705432
vt 0.090909 0.458914
vt 0.090909 0.376741
vt 0.090909 0.623259
vt 0.090909 0.541086
vt 0.136364 1.000000
vt 0.090909 0.705432
vt 0.090909 0.294568
vt 0.136364 0.000000
vt 0.045455 1.000000
vt 0.000000 0.705432
vt 0.000000 0.376741
vt 0.000000 0.294568
vt 0.000000 0.541086
vt 0.000000 0.458914
vt 0.000000 0.623259
vt 0.045455 0.000000
vt 1.000000 0.294568
vt 1.000000 0.376741
vt 0.909091 0.376741
vt 0.909091 0.294568
vt 1.000000 0.458914
vt 1.000000 0.541086
vt 0.909091 0.541086
vt 0.909091 0.458914
vt 1.000000 0.623259
vt 1.000000 0.705432
vt 0.909091 0.705432
vt 0.909091 0.623259
vt 0.954545 0.000000
vt 0.954545 1.000000
vt 0.818182 0.541086
vt 0.818182 0.458914
vt 0.818182 0.705432
vt 0.818182 0.623259
vt 0.863636 0.000000
vt 0.818182 0.294568
vt 0.818182 0.376741
vt 0.863636 1.000000
vt 0.772727 0.000000
vt 0.772727 1.000000
s 0
usemtl Material
f 68/1/1 67/2/1 5/3/1 6/4/1
f 66/5/2 65/6/2 3/7/2 4/8/2
f 64/9/3 63/10/3 1/11/3 2/12/3
f 38/13/4 68/1/4 6/4/4
f 67/2/5 66/5/5 4/8/5 5/3/5
f 65/6/6 64/9/6 2/12/6 3/7/6
f 63/10/7 31/14/7 1/11/7
f 3/7/8 2/12/8 8/15/8 9/16/8
f 1/11/9 31/17/9 7/18/9
f 6/4/10 5/3/10 11/19/10 12/20/10
f 4/8/11 3/7/11 9/16/11 10/21/11
f 2/12/12 1/11/12 7/18/12 8/15/12
f 38/22/13 6/4/13 12/20/13
f 5/3/14 4/8/14 10/21/14 11/19/14
f 12/20/15 11/19/15 17/23/15 18/24/15
f 10/21/16 9/16/16 15/25/16 16/26/16
f 8/15/17 7/18/17 13/27/17 14/28/17
f 38/29/18 12/20/18 18/24/18
f 11/19/19 10/21/19 16/26/19 17/23/19
f 9/16/20 8/15/20 14/28/20 15/25/20
f 7/18/21 31/30/21 13/27/21
f 18/24/22 17/23/22 23/31/22 24/32/22
f 16/26/23 15/25/23 21/33/23 22/34/23
f 14/28/24 13/27/24 19/35/24 20/36/24
f 38/37/25 18/24/25 24/32/25
f 17/23/26 16/26/26 22/34/26 23/31/26
f 15/25/27 14/28/27 20/36/27 21/33/27
f 13/27/28 31/38/28 19/35/28
f 20/36/29 19/35/29 25/39/29 26/40/29
f 38/41/30 24/32/30 30/42/30
f 23/31/31 22/34/31 28/43/31 29/44/31
f 21/33/32 20/36/32 26/40/32 27/45/32
f 19/35/33 31/46/33 25/39/33
f 24/32/34 23/31/34 29/44/34 30/42/34
f 22/34/35 21/33/35 27/45/35 28/43/35
f 38/47/36 30/42/36 37/48/36
f 29/44/37 28/43/37 35/49/37 36/50/37
f 27/45/38 26/40/38 33/51/38 34/52/38
f 25/39/39 31/53/39 32/54/39
f 30/42/40 29/44/40 36/50/40 37/48/40
f 28/43/41 27/45/41 34/52/41 35/49/41
f 26/40/42 25/39/42 32/54/42 33/51/42
f 36/50/43 35/49/43 42/55/43 43/56/43
f 34/52/44 33/51/44 40/57/44 41/58/44
f 32/54/45 31/59/45 39/60/45
f 37/48/46 36/50/46 43/56/46 44/61/46
f 35/49/47 34/52/47 41/58/47 42/55/47
f 33/51/48 32/54/48 39/60/48 40/57/48
f 38/62/49 37/48/49 44/61/49
f 39/60/50 31/63/50 45/64/50
f 44/61/51 43/56/51 49/65/51 50/66/51
f 42/55/52 41/58/52 47/67/52 48/68/52
f 40/57/53 39/60/53 45/64/53 46/69/53
f 38/70/54 44/61/54 50/66/54
f 43/56/55 42/55/55 48/68/55 49/65/55
f 41/58/56 40/57/56 46/69/56 47/67/56
f 50/71/57 49/72/57 55/73/57 56/74/57
f 48/75/58 47/76/58 53/77/58 54/78/58
f 46/79/59 45/80/59 51/81/59 52/82/59
f 38/83/60 50/71/60 56/74/60
f 49/72/61 48/75/61 54/78/61 55/73/61
f 47/76/62 46/79/62 52/82/62 53/77/62
f 45/80/63 31/84/63 51/81/63
f 54/78/64 53/77/64 59/85/64 60/86/64
f 52/82/65 51/81/65 57/87/65 58/88/65
f 38/89/66 56/74/66 62/90/66
f 55/73/67 54/78/67 60/86/67 61/91/67
f 53/77/68 52/82/68 58/88/68 59/85/68
f 51/81/69 31/92/69 57/87/69
f 56/74/70 55/73/70 61/91/70 62/90/70
f 38/93/71 62/90/71 68/1/71
f 61/91/72 60/86/72 66/5/72 67/2/72
f 59/85/73 58/88/73 64/9/73 65/6/73
f 57/87/74 31/94/74 63/10/74
f 62/90/75 61/91/75 67/2/75 68/1/75
f 60/86/76 59/85/76 65/6/76 66/5/76
f 58/88/77 57/87/77 63/10/77 64/9/77
