# Blender 3.6.2
# www.blender.org
mtllib outsidetable_v2.mtl
o Cube
v 117.036018 137.015915 -11.941550
v 117.036018 -2.913770 -11.941547
v 117.036018 137.015915 11.941544
v 117.036018 -2.913768 11.941547
v -117.036018 137.015915 -11.941550
v -117.036018 -2.913770 -11.941547
v -117.036018 137.015915 11.941544
v -117.036018 -2.913768 11.941547
v 117.036018 14.505510 -11.941548
v -117.036018 14.505510 -11.941548
v 117.036018 23.215153 -11.941549
v -117.036018 23.215153 -11.941549
v 117.036018 5.795870 -11.941547
v -117.036018 5.795870 -11.941547
v -117.036018 -2.913769 0.000000
v 117.036018 137.015915 -0.000003
v -117.036018 137.015915 -0.000003
v 117.036018 -2.913769 0.000000
v 117.036018 14.505511 -0.000001
v -117.036018 14.505511 -0.000001
v 117.036018 23.215153 -0.000002
v -117.036018 23.215153 -0.000002
v -117.036018 5.795871 -0.000000
v 117.036018 5.795871 -0.000000
v -117.036018 -2.913769 5.970774
v 117.036018 137.015915 5.970770
v 117.036018 14.505511 5.970773
v 117.036018 23.215153 5.970772
v 117.036018 5.795872 5.970773
v -117.036018 137.015915 5.970770
v 117.036018 -2.913769 5.970774
v -117.036018 14.505511 5.970773
v -117.036018 23.215153 5.970772
v -117.036018 5.795872 5.970773
v -111.974205 15.258899 9.449793
v -117.036018 14.505512 8.674497
v 111.974205 15.258899 9.449793
v 117.036018 14.505512 8.674497
v -111.974205 22.461767 9.449792
v -117.036018 23.968536 9.190969
v 111.974205 22.461767 9.449792
v 117.036018 23.968536 9.190969
v 117.036018 5.042486 9.190971
v -117.036018 5.042486 9.190971
v -110.249382 11.014060 13.073854
v -112.604950 11.148541 13.037146
v 110.249382 11.014060 13.073854
v 112.604950 11.148541 13.037146
v 110.249382 9.255504 13.073854
v 113.120361 9.098325 13.073854
v -110.249382 9.255504 13.073854
v -113.120361 9.098325 13.073854
vn -0.0000 1.0000 -0.0000
vn 1.0000 -0.0000 -0.0000
vn -1.0000 -0.0000 -0.0000
vn -0.0000 -1.0000 -0.0000
vn -0.0000 -0.0000 1.0000
vn -0.0000 0.3267 0.9451
vn -0.0000 -0.0243 0.9997
vn -0.0000 0.6575 0.7534
vn 0.7040 0.0655 0.7071
vn -0.2088 0.6610 0.7207
vn 0.1038 -0.0308 0.9941
vn 0.2088 0.6610 0.7207
vn -0.1038 -0.0308 0.9941
vn -0.0000 0.1693 0.9856
vn -0.0000 -0.6915 0.7223
vn -0.0071 0.0106 0.9999
vn -0.0000 0.2633 0.9647
vn 0.0071 0.0106 0.9999
vn -0.7040 0.0655 0.7071
vt 0.625000 0.687500
vt 0.875000 0.687500
vt 0.875000 0.750000
vt 0.625000 0.750000
vt 0.562500 0.687500
vt 0.567906 0.750000
vt 0.562500 0.125000
vt 0.625000 0.125000
vt 0.625000 0.250000
vt 0.562500 0.250000
vt 0.125000 0.687500
vt 0.375000 0.687500
vt 0.375000 0.750000
vt 0.125000 0.750000
vt 0.437500 0.687500
vt 0.432094 0.750000
vt 0.567906 0.000000
vt 0.625000 0.000000
vt 0.625000 0.062500
vt 0.562500 0.062500
vt 0.437500 0.125000
vt 0.500000 0.125000
vt 0.500000 0.250000
vt 0.437500 0.250000
vt 0.505406 0.755406
vt 0.557094 0.755406
vt 0.557094 0.994594
vt 0.505406 0.994594
vt 0.500000 0.687500
vt 0.500000 0.744594
vt 0.500000 0.005406
vt 0.500000 0.062500
vt 0.375000 0.000000
vt 0.432094 0.000000
vt 0.437500 0.062500
vt 0.375000 0.062500
vt 0.375000 0.125000
vt 0.375000 0.250000
vt 0.432094 1.000000
vt 0.375000 1.000000
vt 0.375000 0.500000
vt 0.437500 0.500000
vt 0.437500 0.625000
vt 0.375000 0.625000
vt 0.500000 0.500000
vt 0.562500 0.500000
vt 0.562500 0.625000
vt 0.500000 0.625000
vt 0.625000 0.500000
vt 0.625000 0.625000
vt 0.125000 0.500000
vt 0.125000 0.625000
vt 0.875000 0.500000
vt 0.875000 0.625000
vt 0.625000 1.000000
vt 0.567906 1.000000
vt 0.496224 0.995267
vt 0.496224 0.754732
vt 0.444748 0.757248
vt 0.492752 0.757248
vt 0.492752 0.992752
vt 0.444748 0.992752
vt 0.496411 0.754229
vt 0.440458 0.754182
vt 0.495845 0.995267
vt 0.500000 0.994594
vt 0.500000 1.000000
vt 0.496423 0.754059
vt 0.562500 1.000000
vt 0.440458 0.995818
vt 0.496322 0.995137
vt 0.441682 0.995818
vt 0.437500 1.000000
s 0
usemtl Material.001
f 26/1/1 30/2/1 7/3/1 3/4/1
f 28/5/2 26/1/2 3/4/2 42/6/2
f 22/7/3 17/8/3 5/9/3 12/10/3
f 25/11/4 31/12/4 4/13/4 8/14/4
f 31/12/2 29/15/2 43/16/2 4/13/2
f 40/17/3 7/18/3 30/19/3 33/20/3
f 23/21/3 20/22/3 10/23/3 14/24/3
f 37/25/5 41/26/5 39/27/5 35/28/5
f 29/15/2 27/29/2 38/30/2 43/16/2
f 20/22/3 22/7/3 12/10/3 10/23/3
f 36/31/3 40/17/3 33/20/3 32/32/3
f 8/33/3 44/34/3 34/35/3 25/36/3
f 15/37/3 23/21/3 14/24/3 6/38/3
f 4/13/6 43/16/6 44/39/6 8/40/6
f 2/41/2 13/42/2 24/43/2 18/44/2
f 25/36/3 34/35/3 23/21/3 15/37/3
f 32/32/3 33/20/3 22/7/3 20/22/3
f 9/45/2 11/46/2 21/47/2 19/48/2
f 34/35/3 32/32/3 20/22/3 23/21/3
f 13/42/2 9/45/2 19/48/2 24/43/2
f 11/46/2 1/49/2 16/50/2 21/47/2
f 6/51/4 2/41/4 18/44/4 15/52/4
f 33/20/3 30/19/3 17/8/3 22/7/3
f 1/49/1 5/53/1 17/54/1 16/50/1
f 42/6/7 3/4/7 7/55/7 40/56/7
f 37/25/8 35/28/8 46/57/8 48/58/8
f 27/29/2 28/5/2 42/6/2 38/30/2
f 18/44/2 24/43/2 29/15/2 31/12/2
f 19/48/2 21/47/2 28/5/2 27/29/2
f 24/43/2 19/48/2 27/29/2 29/15/2
f 21/47/2 16/50/2 26/1/2 28/5/2
f 15/52/4 18/44/4 31/12/4 25/11/4
f 16/50/1 17/54/1 30/2/1 26/1/1
f 49/59/5 47/60/5 45/61/5 51/62/5
f 48/63/9 50/64/9 43/16/9 38/30/9
f 46/65/10 35/66/10 36/67/10
f 41/26/11 37/25/11 38/30/11 42/6/11
f 37/25/12 48/68/12 38/30/12
f 35/28/13 39/27/13 40/69/13 36/67/13
f 42/6/14 40/56/14 39/27/14 41/26/14
f 50/64/15 52/70/15 44/39/15 43/16/15
f 44/34/3 36/31/3 32/32/3 34/35/3
f 51/62/16 45/61/16 46/71/16 52/72/16
f 45/61/17 47/60/17 48/58/17 46/57/17
f 47/60/18 49/59/18 50/64/18 48/63/18
f 49/59/5 51/62/5 52/70/5 50/64/5
f 52/72/19 46/71/19 36/67/19 44/73/19
